<?xml version="1.0" encoding="UTF-8"?>
<!DOCTYPE svg PUBLIC "-//W3C//DTD SVG 1.1//EN" "http://www.w3.org/Graphics/SVG/1.1/DTD/svg11.dtd">
<svg xmlns="http://www.w3.org/2000/svg" version="1.1" width="61px" height="45px" style="shape-rendering:geometricPrecision; text-rendering:geometricPrecision; image-rendering:optimizeQuality; fill-rule:evenodd; clip-rule:evenodd" xmlns:xlink="http://www.w3.org/1999/xlink">
<g><path style="opacity:1" fill="#000000" d="M -0.5,-0.5 C 19.8333,-0.5 40.1667,-0.5 60.5,-0.5C 60.5,0.833333 60.5,2.16667 60.5,3.5C 40.1667,3.5 19.8333,3.5 -0.5,3.5C -0.5,2.16667 -0.5,0.833333 -0.5,-0.5 Z"/></g>
<g><path style="opacity:1" fill="#f9fdfc" d="M -0.5,3.5 C 19.8333,3.5 40.1667,3.5 60.5,3.5C 60.5,16.1667 60.5,28.8333 60.5,41.5C 40.1667,41.5 19.8333,41.5 -0.5,41.5C -0.5,28.8333 -0.5,16.1667 -0.5,3.5 Z"/></g>
<g><path style="opacity:1" fill="#43b450" d="M 1.5,8.5 C 5.5,8.5 9.5,8.5 13.5,8.5C 13.5,9.5 13.5,10.5 13.5,11.5C 10.8333,11.5 8.16667,11.5 5.5,11.5C 5.5,13.1667 5.5,14.8333 5.5,16.5C 7.83333,16.5 10.1667,16.5 12.5,16.5C 12.5,17.5 12.5,18.5 12.5,19.5C 10.1667,19.5 7.83333,19.5 5.5,19.5C 5.5,21.5 5.5,23.5 5.5,25.5C 8.16667,25.5 10.8333,25.5 13.5,25.5C 13.5,26.5 13.5,27.5 13.5,28.5C 9.5,28.5 5.5,28.5 1.5,28.5C 1.5,21.8333 1.5,15.1667 1.5,8.5 Z"/></g>
<g><path style="opacity:1" fill="#3bb350" d="M 19.5,8.5 C 19.9348,11.1573 20.9348,13.4907 22.5,15.5C 22.4354,18.4715 23.2687,21.1382 25,23.5C 25.2321,22.2625 25.7321,21.2625 26.5,20.5C 28.2766,17.4954 29.2766,14.1621 29.5,10.5C 30.1834,8.82351 31.5168,8.15684 33.5,8.5C 32.1667,12.8333 30.8333,17.1667 29.5,21.5C 28.4336,23.7014 27.767,26.0347 27.5,28.5C 25.2341,28.8588 23.4007,28.1922 22,26.5C 20.3145,20.6043 18.1478,14.9376 15.5,9.5C 16.6888,8.57131 18.0222,8.23798 19.5,8.5 Z"/></g>
<g><path style="opacity:1" fill="#5ab953" d="M 36.5,8.5 C 37.8333,8.5 39.1667,8.5 40.5,8.5C 40.5,15.1667 40.5,21.8333 40.5,28.5C 39.1667,28.5 37.8333,28.5 36.5,28.5C 36.5,21.8333 36.5,15.1667 36.5,8.5 Z"/></g>
<g><path style="opacity:1" fill="#46b554" d="M 48.5,8.5 C 50.9201,8.29245 53.2534,8.62578 55.5,9.5C 56.8333,10.5 56.8333,11.5 55.5,12.5C 52.517,10.7935 50.1836,11.2935 48.5,14C 52.1131,15.9738 55.1131,18.6405 57.5,22C 55.5085,27.9501 51.5085,29.7834 45.5,27.5C 44.3861,26.277 44.2195,24.9437 45,23.5C 48.2483,26.2592 51.0816,26.0925 53.5,23C 50.7065,20.9929 47.8731,18.8262 45,16.5C 43.7801,12.7069 44.9468,10.0402 48.5,8.5 Z"/></g>
<g><path style="opacity:1" fill="#6bd9d9" d="M 19.5,8.5 C 21.4484,10.3204 22.4484,12.6538 22.5,15.5C 20.9348,13.4907 19.9348,11.1573 19.5,8.5 Z"/></g>
<g><path style="opacity:1" fill="#65d8d4" d="M 33.5,8.5 C 34.0967,8.7352 34.4301,9.2352 34.5,10C 33.4816,14.2587 31.8149,18.092 29.5,21.5C 30.8333,17.1667 32.1667,12.8333 33.5,8.5 Z"/></g>
<g><path style="opacity:1" fill="#c3d374" d="M 29.5,10.5 C 29.2766,14.1621 28.2766,17.4954 26.5,20.5C 26.7234,16.8379 27.7234,13.5046 29.5,10.5 Z"/></g>
<g><path style="opacity:1" fill="#000000" d="M -0.5,41.5 C 19.8333,41.5 40.1667,41.5 60.5,41.5C 60.5,42.5 60.5,43.5 60.5,44.5C 40.1667,44.5 19.8333,44.5 -0.5,44.5C -0.5,43.5 -0.5,42.5 -0.5,41.5 Z"/></g>
</svg>
